<svg width="84" height="80" viewBox="0 0 84 80" fill="none" xmlns="http://www.w3.org/2000/svg">
<path d="M74.1027 24.6621L80.8272 42.4496C82.256 46.229 79.4634 50.2703 75.4229 50.2703H74.1836C71.6771 50.2703 69.6453 48.2384 69.6453 45.732C69.6453 43.2256 67.6134 41.1937 65.107 41.1937H58.4921C54.6261 41.1937 51.4921 38.0597 51.4921 34.1937V30.0405C51.4921 26.1745 48.3581 23.0405 44.4921 23.0405H40.339C36.473 23.0405 33.339 26.1745 33.339 30.0405V34.1937C33.339 38.0597 30.205 41.1937 26.339 41.1937H19.7241C17.2177 41.1937 15.1858 43.2256 15.1858 45.732C15.1858 48.2384 13.154 50.2703 10.6475 50.2703H8.918C4.5769 50.2703 1.55028 45.9639 3.0207 41.8794L8.38949 26.9661C9.05012 25.1311 10.4464 23.6548 12.2419 22.8931L17.6371 20.6042C19.7141 19.7231 21.239 17.8948 21.7332 15.6934L23.1137 9.54418C23.9831 5.67119 28.1553 3.53855 31.8037 5.10216L32.4249 5.3684C35.0345 6.48678 38.0679 5.47015 39.4765 3.0051C40.5285 1.16403 42.5321 0.0772181 44.6491 0.199349L54.3569 0.759418C57.3421 0.931639 59.8883 2.981 60.6945 5.86039L63.2609 15.0262C63.8716 17.2071 65.4997 18.9578 67.6306 19.725L69.926 20.5513C71.8524 21.2448 73.3786 22.747 74.1027 24.6621Z" fill="black"/>
<path d="M70.8671 41.1937V40.1464H69.8198H52.714V23.0405V21.9932H51.6667H33.5135H32.4662V23.0405V40.1464H15.3604H14.3131V41.1937V59.3468V60.3941H15.3604H32.4662V77.5V78.5473H33.5135H51.6667H52.714V77.5V60.3941H69.8198H70.8671V59.3468V41.1937Z" stroke="black" stroke-width="2.09459"/>
</svg>
